name rise30.8019peak61.5557fall86.2505.mot
datacolumns 19
datarows 14
range 12.38995800000000 12.41162400000000
endheader
time	ground_force1_vx	ground_force1_vy	ground_force1_vz	ground_force1_px	ground_force1_py	ground_force1_pz	ground_force2_vx	ground_force2_vy	ground_force2_vz	ground_force2_px	ground_force2_py	ground_force2_pz	ground_torque1_x	ground_torque1_y	ground_torque1_z	ground_torque2_x	ground_torque2_y	ground_torque2_z	
12.38995800000000	-4.52555600000000	45.70987700000000	-9.01562800000000	0.25580200000000	0.00000000000000	0.07578800000000	-55.28244900000000	758.02349300000003	-49.67611300000000	0.01868500000000	0.00000000000000	-0.09186500000000	0.00000000000000	-4.90664800000000	0.00000000000000	0.00000000000000	-10.21099100000000	0.00000000000000	
12.39164300000000	-4.77761600000000	52.17958800000000	-9.91457000000000	0.25954700000000	0.00000000000000	0.07637500000000	-56.27274900000000	755.74846700000001	-49.32444400000000	0.01786400000000	0.00000000000000	-0.09171900000000	0.00000000000000	-5.45702400000000	0.00000000000000	0.00000000000000	-10.31736700000000	0.00000000000000	
12.39328800000000	-4.92086000000000	58.56833800000000	-10.70033000000000	0.26301100000000	0.00000000000000	0.07691700000000	-57.28033600000000	753.35060099999998	-48.95621700000000	0.01704300000000	0.00000000000000	-0.09157000000000	0.00000000000000	-5.95613300000000	0.00000000000000	0.00000000000000	-10.42936700000000	0.00000000000000	
12.39495500000000	-4.94781400000000	64.81166200000000	-11.35933000000000	0.26622600000000	0.00000000000000	0.07742100000000	-58.30374000000000	750.82612099999994	-48.57106900000000	0.01622300000000	0.00000000000000	-0.09141800000000	0.00000000000000	-6.39540800000000	0.00000000000000	0.00000000000000	-10.54677500000000	0.00000000000000	
12.39662400000000	-4.85590600000000	70.87066500000000	-11.88531800000000	0.26921900000000	0.00000000000000	0.07789100000000	-59.34138800000000	748.17124100000001	-48.16864800000000	0.01540400000000	0.00000000000000	-0.09126400000000	0.00000000000000	-6.77023200000000	0.00000000000000	0.00000000000000	-10.66935300000000	0.00000000000000	
12.39829100000000	-4.64698600000000	76.73137100000000	-12.27882500000000	0.27201300000000	0.00000000000000	0.07833200000000	-60.39160100000000	745.38217999999995	-47.74861600000000	0.01458600000000	0.00000000000000	-0.09110800000000	0.00000000000000	-7.07974000000000	0.00000000000000	0.00000000000000	-10.79684000000000	0.00000000000000	
12.39996000000000	-4.32658500000000	82.40213199999999	-12.54616500000000	0.27462700000000	0.00000000000000	0.07874700000000	-61.45260100000000	742.45517299999995	-47.31065300000000	0.01377000000000	0.00000000000000	-0.09094800000000	0.00000000000000	-7.32634500000000	0.00000000000000	0.00000000000000	-10.92895300000000	0.00000000000000	
12.40162600000000	-3.90299000000000	87.90964600000000	-12.69812700000000	0.27707800000000	0.00000000000000	0.07913800000000	-62.52250600000000	739.38648599999999	-46.85445900000000	0.01295600000000	0.00000000000000	-0.09078700000000	0.00000000000000	-7.51508300000000	0.00000000000000	0.00000000000000	-11.06538800000000	0.00000000000000	
12.40329400000000	-3.38626600000000	93.29416100000000	-12.74853000000000	0.27938000000000	0.00000000000000	0.07950800000000	-63.59934200000000	736.17242399999998	-46.37975800000000	0.01214400000000	0.00000000000000	-0.09062200000000	0.00000000000000	-7.65283800000000	0.00000000000000	0.00000000000000	-11.20582000000000	0.00000000000000	
12.40495400000000	-2.78730300000000	98.60439100000001	-12.71278200000000	0.28154300000000	0.00000000000000	0.07986000000000	-64.68103700000000	732.80935399999998	-45.88630100000000	0.01133500000000	0.00000000000000	-0.09045500000000	0.00000000000000	-7.74756300000000	0.00000000000000	0.00000000000000	-11.34990200000000	0.00000000000000	
12.40662500000000	-2.11696300000000	103.89262600000001	-12.60655100000000	0.28357800000000	0.00000000000000	0.08019400000000	-65.76542999999999	729.29371000000003	-45.37386800000000	0.01052800000000	0.00000000000000	-0.09028600000000	0.00000000000000	-7.80753500000000	0.00000000000000	0.00000000000000	-11.49726600000000	0.00000000000000	
12.40829400000000	-1.38538200000000	109.21037500000000	-12.44465300000000	0.28549300000000	0.00000000000000	0.08051300000000	-66.85027300000000	725.62201500000003	-44.84227300000000	0.00972500000000	0.00000000000000	-0.09011400000000	0.00000000000000	-7.84071400000000	0.00000000000000	0.00000000000000	-11.64752700000000	0.00000000000000	
12.40995200000000	-0.60145000000000	114.60480000000000	-12.24018700000000	0.28729700000000	0.00000000000000	0.08081800000000	-67.93323400000000	721.79089099999999	-44.29136500000000	0.00892400000000	0.00000000000000	-0.08993900000000	0.00000000000000	-7.85424000000000	0.00000000000000	0.00000000000000	-11.80027900000000	0.00000000000000	
12.41162400000000	0.22751800000000	120.11608200000001	-12.00395100000000	0.28899600000000	0.00000000000000	0.08111100000000	-69.01190699999999	717.79708000000005	-43.72103500000000	0.00812600000000	0.00000000000000	-0.08976200000000	0.00000000000000	-7.85406800000000	0.00000000000000	0.00000000000000	-11.95509900000000	0.00000000000000	
